<svg xmlns="http://www.w3.org/2000/svg" xmlns:xlink="http://www.w3.org/1999/xlink" width="87.281" height="87.285" viewBox="0 0 87.281 87.285">
  <defs>
    <clipPath id="clip-path">
      <rect id="Rectangle_11" data-name="Rectangle 11" width="87.281" height="87.285" fill="#161819"/>
    </clipPath>
  </defs>
  <g id="Group_23" data-name="Group 23" transform="translate(0)">
    <path id="Path_45" data-name="Path 45" d="M114.472,69.3l-4.584,4.584L105.3,69.3l-4.584,4.584,4.584,4.584-4.584,4.584,4.584,4.58,4.585-4.584,4.584,4.584,4.58-4.58-4.585-4.584,4.585-4.584Z" transform="translate(-50.613 -34.825)" fill="#161819"/>
    <g id="Group_22" data-name="Group 22" transform="translate(0)">
      <g id="Group_21" data-name="Group 21" clip-path="url(#clip-path)">
        <path id="Path_46" data-name="Path 46" d="M87.265,24.663c0-2.495-.114-5-.34-7.484A18.438,18.438,0,0,0,73.355.987,30.92,30.92,0,0,0,65.172.041C57.986.006,50.8.029,43.613.029V.012c-6.079,0-12.158-.034-18.236.016a70.847,70.847,0,0,0-8.247.365C9.334,1.373,3.936,5.535,1.257,13A26.726,26.726,0,0,0,.024,22.072q-.041,20.2.014,40.393a53.492,53.492,0,0,0,.539,8.741c1.338,7.853,5.932,13.031,13.647,15.105a31.963,31.963,0,0,0,8.009.9c13.634.092,27.269.079,40.9.036a48.21,48.21,0,0,0,8.06-.53c7.808-1.357,13-5.895,15.077-13.575a32.52,32.52,0,0,0,.93-8.176c.1-13.435.082-26.872.062-40.307M41.21,54.676v8.868H9.14V62.038a2.033,2.033,0,0,1,.607-1.449l6.007-5.913,1.138-1.118,11.072-10.9,0,0a3.947,3.947,0,0,0,1.189-2.809,3.976,3.976,0,1,0-7.952-.023,3.957,3.957,0,0,0,1.143,2.788l-8.6,8.459a16.035,16.035,0,1,1,22.679.181l-.186.184-3.292,3.24Zm36.931-8.449a17.316,17.316,0,1,1-34.633,0V41.054a17.316,17.316,0,0,1,34.633,0Z" transform="translate(0 0)" fill="#161819"/>
      </g>
    </g>
  </g>
</svg>
