<svg id="BB-FullLockup-V_Color-Blue" xmlns="http://www.w3.org/2000/svg" width="144" height="85.049" viewBox="0 0 144 85.049">
  <g id="Group_69" data-name="Group 69" transform="translate(48.579)">
    <path id="Path_138" data-name="Path 138" d="M357.474,31.8a16.012,16.012,0,0,0-2.546-3.322,16.068,16.068,0,0,0,1.459-2.438,17.275,17.275,0,0,0,1.63-7.545,18.752,18.752,0,0,0-1.553-7.7,16.514,16.514,0,0,0-4.456-5.977C348.3,1.661,343.159,0,337.151,0H312.9V25.99h26.906a7.825,7.825,0,1,0,0-15.65H323.582v12h-7.033V3.649h20.587c10.371,0,17.233,5.589,17.233,14.842a12.629,12.629,0,0,1-4.844,10.371,13.1,13.1,0,0,1,6.567,11.706c0,9.253-6.94,15.293-17.528,15.293H316.548V35.973h7.033V48.548h17.109a8.12,8.12,0,0,0,0-16.24H312.9V59.494h25.648c6.086,0,11.334-1.754,15.137-5.077a16.955,16.955,0,0,0,4.487-6.117,19.34,19.34,0,0,0,1.553-7.747A17.114,17.114,0,0,0,357.474,31.8ZM327.23,13.973h12.576a4.176,4.176,0,1,1,0,8.353H327.23Zm0,22h13.461a4.471,4.471,0,1,1,0,8.943H327.23Z" transform="translate(-312.9)" fill="#161819"/>
  </g>
  <g id="Group_70" data-name="Group 70" transform="translate(0 71.977)">
    <path id="Path_139" data-name="Path 139" d="M9.253,474.127a3.69,3.69,0,0,1-3.912,3.649H0V465.2H4.953a3.6,3.6,0,0,1,3.819,3.54,3.133,3.133,0,0,1-1.18,2.515A3.175,3.175,0,0,1,9.253,474.127Zm-6.769-6.614v2.764H4.968a1.382,1.382,0,0,0,0-2.764Zm4.3,6.443a1.424,1.424,0,0,0-1.459-1.475H2.484v2.965H5.341A1.415,1.415,0,0,0,6.785,473.956Z" transform="translate(0 -464.952)" fill="#161819"/>
    <path id="Path_140" data-name="Path 140" d="M77.763,475.4v2.375H70V465.2h7.685v2.375H72.469v2.67h4.751v2.329H72.469V475.4Z" transform="translate(-59.132 -464.952)" fill="#161819"/>
    <path id="Path_141" data-name="Path 141" d="M142.254,471.488a6.059,6.059,0,0,1-6.055,6.288h-5V465.2h5A6.059,6.059,0,0,1,142.254,471.488Zm-2.375,0a3.628,3.628,0,0,0-3.68-3.912h-2.515V475.4H136.2A3.628,3.628,0,0,0,139.879,471.488Z" transform="translate(-110.83 -464.952)" fill="#161819"/>
    <path id="Path_142" data-name="Path 142" d="M216.184,467.575v2.981h4.891v2.375h-4.891v4.844H213.7V465.2h7.5v2.375Z" transform="translate(-180.522 -464.952)" fill="#161819"/>
    <path id="Path_143" data-name="Path 143" d="M270.1,470.136a6.528,6.528,0,1,1,6.521,6.536A6.465,6.465,0,0,1,270.1,470.136Zm10.573,0a4.053,4.053,0,1,0-4.052,4.114A3.987,3.987,0,0,0,280.673,470.136Z" transform="translate(-228.165 -463.6)" fill="#161819"/>
    <path id="Path_144" data-name="Path 144" d="M369.763,473.413h-1.879v4.363H365.4V465.2h5.03a4.164,4.164,0,0,1,4.176,4.161,4.108,4.108,0,0,1-2.422,3.664l2.779,4.735h-2.67Zm-1.894-2.174h2.546a1.862,1.862,0,0,0,0-3.711h-2.546Z" transform="translate(-308.67 -464.952)" fill="#161819"/>
    <path id="Path_145" data-name="Path 145" d="M447.354,471.488a6.059,6.059,0,0,1-6.055,6.288h-5V465.2h5A6.059,6.059,0,0,1,447.354,471.488Zm-2.375,0a3.628,3.628,0,0,0-3.68-3.912h-2.515V475.4H441.3A3.628,3.628,0,0,0,444.979,471.488Z" transform="translate(-368.562 -464.952)" fill="#161819"/>
    <path id="Path_146" data-name="Path 146" d="M545.689,474.267a3.505,3.505,0,0,1-3.509,3.509H536.7V465.2h5.061a3.376,3.376,0,0,1,3.369,3.369,3.071,3.071,0,0,1-1.475,2.67A3.239,3.239,0,0,1,545.689,474.267Zm-7.732-7.887v4.378h3.8a2.191,2.191,0,0,0,0-4.378Zm6.474,7.887a2.287,2.287,0,0,0-2.251-2.313h-4.223v4.627h4.223A2.277,2.277,0,0,0,544.432,474.267Z" transform="translate(-453.374 -464.952)" fill="#161819"/>
    <path id="Path_147" data-name="Path 147" d="M613.182,472.745h-3.524v5.03H608.4V465.2h5.03a3.761,3.761,0,0,1,1.056,7.375l3.074,5.186h-1.444Zm-3.524-1.2h3.773a2.594,2.594,0,0,0,0-5.186h-3.773Z" transform="translate(-513.943 -464.952)" fill="#161819"/>
    <path id="Path_148" data-name="Path 148" d="M680.258,465.2v12.576H679V465.2Z" transform="translate(-573.581 -464.952)" fill="#161819"/>
    <path id="Path_149" data-name="Path 149" d="M716.375,471.488a6,6,0,0,1-5.931,6.288H705.6V465.2h4.844A6.006,6.006,0,0,1,716.375,471.488Zm-1.227,0a4.779,4.779,0,0,0-4.7-5.092h-3.586v10.2h3.586A4.8,4.8,0,0,0,715.148,471.488Z" transform="translate(-596.052 -464.952)" fill="#161819"/>
    <path id="Path_150" data-name="Path 150" d="M796.931,471.168c0,3-2.282,5.543-6.148,5.543a6.506,6.506,0,1,1,0-13.01,6.187,6.187,0,0,1,5.434,3.09l-1.118.652a4.833,4.833,0,0,0-4.332-2.515,5.279,5.279,0,1,0,0,10.557c2.934,0,4.611-1.692,4.844-3.788h-5v-1.18H796.9v.652Z" transform="translate(-662.449 -463.684)" fill="#161819"/>
    <path id="Path_151" data-name="Path 151" d="M887.459,476.5v1.18H880.1V465.1h7.281v1.18h-6.008v4.456h5.574v1.18h-5.574v4.564h6.086Z" transform="translate(-743.46 -464.867)" fill="#161819"/>
  </g>
</svg>
