<svg xmlns="http://www.w3.org/2000/svg" xmlns:xlink="http://www.w3.org/1999/xlink" width="117.371" height="96.284" viewBox="0 0 117.371 96.284">
  <defs>
    <clipPath id="clip-path">
      <rect id="Rectangle_10" data-name="Rectangle 10" width="117.371" height="96.284" fill="#161819"/>
    </clipPath>
  </defs>
  <g id="Group_20" data-name="Group 20" transform="translate(0)">
    <g id="Group_19" data-name="Group 19" transform="translate(0)" clip-path="url(#clip-path)">
      <path id="Path_33" data-name="Path 33" d="M86.976,131.177h-1.66a.751.751,0,0,0-.752.752v1.241a.737.737,0,0,1,0,1.1v1.24a.752.752,0,0,0,.752.752h1.66a.752.752,0,0,0,.752-.752v-1.24a.736.736,0,0,1,0-1.1v-1.241a.751.751,0,0,0-.752-.752M86.7,134.3v1.055a.083.083,0,0,1-.083.084H85.68a.084.084,0,0,1-.084-.084v-1.138a.084.084,0,0,1,.084-.083h.932a.083.083,0,0,1,.083.083Zm0-1.07a.083.083,0,0,1-.083.084H85.68a.084.084,0,0,1-.084-.084v-1.148A.084.084,0,0,1,85.68,132h.932a.084.084,0,0,1,.083.084ZM100.786,136l.147.275v.063H99.468v-.063L99.73,136l1.668-3.949H99.548l-.364.165-.049-.037.288-.949h2.695l.377.751Zm-6.16-4.822H92.964a.729.729,0,0,0-.3.063.751.751,0,0,0-.461.693v1.61a.752.752,0,0,0,.752.752h1.388v1.059a.084.084,0,0,1-.084.084h-.934a.085.085,0,0,1-.085-.084v-.673H92.065v.063l.147.276v.488a.753.753,0,0,0,.752.752h1.662a.753.753,0,0,0,.753-.752v-3.577a.752.752,0,0,0-.752-.752m-.367,2.3h-.936a.083.083,0,0,1-.084-.083l0-1.307a.085.085,0,0,1,.025-.058.08.08,0,0,1,.054-.023h.935a.084.084,0,0,1,.083.084l0,1.3a.083.083,0,0,1-.084.083M79.9,135.924l.151.275v.063H78.744V136.2l.147-.275V132.19h-.58l.508-1.017H79.9ZM69.837,135.3l.049.037-.288.949H66.582v-.063l.147-.276v-4.43l-.147-.276v-.063h2.756l.289.949-.049.038L69.214,132H67.761v1.668h.886l.276-.147h.063v1.115h-.063l-.276-.147h-.886v.977h1.712ZM41.51,132.387l.147.275v.063h-1.18v-.61a.084.084,0,0,0-.084-.084H39.48a.084.084,0,0,0-.084.084v.841h0v.157a.084.084,0,0,0,.084.084h1.272a.753.753,0,0,1,.752.752v.285h0v1.307a.752.752,0,0,1-.752.752H39.111a.752.752,0,0,1-.752-.752v-.69l-.147-.276v-.063h1.18v.875a.084.084,0,0,0,.084.083h.912a.083.083,0,0,0,.083-.083V134.7h0v-.6a.083.083,0,0,0-.084-.083h-.536v0h-.736a.752.752,0,0,1-.752-.752v-.835h0v-.468a.752.752,0,0,1,.752-.753h1.641a.753.753,0,0,1,.752.753Zm19.714.338v-.611a.083.083,0,0,0-.084-.083h-.912a.084.084,0,0,0-.084.083v3.275a.085.085,0,0,0,.084.084h.912a.084.084,0,0,0,.084-.084v-.611H62.4v.063l-.147.276v.424a.752.752,0,0,1-.752.752H59.857a.752.752,0,0,1-.752-.752v-.69h.006v-2.2h-.006v-.69a.752.752,0,0,1,.752-.752H61.5a.752.752,0,0,1,.752.752v.425l.147.275v.063Zm-14.09-1.553v.063l-.147.275h0v4.412l.151.275v.063H45.825V136.2l.147-.275,0-4.412-.151-.276v-.062h1.309Zm7.646,0v.063l-.147.275h0v4.412l.151.275v.063H53.618v0L52.494,133.5v2.427l.151.275v.063H51.336V136.2l.147-.275,0-4.412-.151-.276v-.062h1.158l1.126,2.916v-2.579l-.151-.276v-.062H54.78Z" transform="translate(-11.668 -40.053)" fill="#161819"/>
      <path id="Path_34" data-name="Path 34" d="M36.964,70.145,57.743,43.913H47.549L36.969,57.276,26.38,43.913H16.185Z" transform="translate(-4.942 -13.409)" fill="#161819"/>
      <path id="Path_35" data-name="Path 35" d="M86.965,43.914H76.776l6.255,7.9L98.067,70.8,82.562,90.376l-5.785,7.312h10.2l21.293-26.882Z" transform="translate(-23.443 -13.409)" fill="#161819"/>
      <path id="Path_36" data-name="Path 36" d="M67.368,97.141l5.1-6.442L57.054,71.235,72.471,51.771l-5.1-6.436L46.852,71.241Z" transform="translate(-14.306 -13.843)" fill="#161819"/>
      <path id="Path_37" data-name="Path 37" d="M113.732,70.146l20.779-26.231H124.316L113.732,57.276,103.147,43.914H92.952Z" transform="translate(-28.383 -13.409)" fill="#161819"/>
      <path id="Path_38" data-name="Path 38" d="M113.736,83.581,92.966,109.8h10.195l10.575-13.35,10.575,13.35h10.195Z" transform="translate(-28.387 -25.521)" fill="#161819"/>
      <path id="Path_39" data-name="Path 39" d="M155.118,43.914H144.923l-21.3,26.893,21.294,26.882h10.2L133.82,70.8Z" transform="translate(-37.747 -13.409)" fill="#161819"/>
      <path id="Path_40" data-name="Path 40" d="M10.2,97.688,31.5,70.807l-21.3-26.893H0L21.3,70.8,0,97.688Z" transform="translate(0 -13.409)" fill="#161819"/>
      <path id="Path_41" data-name="Path 41" d="M36.968,83.581,16.2,109.8H26.394L36.968,96.45,47.543,109.8H57.738Z" transform="translate(-4.946 -25.521)" fill="#161819"/>
      <path id="Path_42" data-name="Path 42" d="M54.838,12.8v2.6H52.043V13.322a.261.261,0,0,0-.26-.261H49.4a.262.262,0,0,0-.262.261v.61l5.414,6.834a1.3,1.3,0,0,1,.283.811v2.329a2.351,2.351,0,0,1-2.351,2.351H48.7a2.351,2.351,0,0,1-2.351-2.351V20.4h2.795v2.988a.263.263,0,0,0,.262.262h2.38a.261.261,0,0,0,.26-.262V22.095L46.63,15.261a1.308,1.308,0,0,1-.283-.811V12.8A2.351,2.351,0,0,1,48.7,10.449h3.79A2.351,2.351,0,0,1,54.838,12.8m-10.85,0V23.906a2.35,2.35,0,0,1-2.35,2.351H37.846A2.35,2.35,0,0,1,35.5,23.906V12.8a2.35,2.35,0,0,1,2.349-2.351h3.791a2.35,2.35,0,0,1,2.35,2.351m-2.795.522a.262.262,0,0,0-.262-.261H38.552a.262.262,0,0,0-.262.261V23.383a.262.262,0,0,0,.262.262h2.378a.262.262,0,0,0,.262-.262ZM33.032,12.8V23.906a2.351,2.351,0,0,1-2.351,2.351h-6.14V10.449h6.14A2.351,2.351,0,0,1,33.032,12.8m-2.795.522a.261.261,0,0,0-.261-.261H27.335V23.645h2.641a.261.261,0,0,0,.261-.262Zm77.58,2.079V12.8a2.351,2.351,0,0,0-2.351-2.351h-3.79A2.351,2.351,0,0,0,99.326,12.8v1.65a1.3,1.3,0,0,0,.283.811l5.413,6.834v1.289a.261.261,0,0,1-.26.262h-2.38a.262.262,0,0,1-.261-.262V20.4H99.326v3.51a2.351,2.351,0,0,0,2.351,2.351h3.79a2.351,2.351,0,0,0,2.351-2.351V21.577a1.307,1.307,0,0,0-.283-.811l-5.414-6.834v-.61a.262.262,0,0,1,.261-.261h2.38a.261.261,0,0,1,.26.261V15.4ZM87.965,23.645h-2.64a.262.262,0,0,1-.261-.262V10.449H82.269V23.906a2.351,2.351,0,0,0,2.35,2.351H86.7l1.261-1.591v1.591h2.8V10.449h-2.8Zm5.786,2.611h2.794V10.449H93.751Zm-15.2-.392,1.312,1.671H76.715l-1-1.28H75.7L74.706,25v1.253H73.46a2.351,2.351,0,0,1-2.351-2.351V12.8a2.351,2.351,0,0,1,2.351-2.351h3.789A2.351,2.351,0,0,1,79.6,12.8V23.906a2.347,2.347,0,0,1-1.051,1.959M73.9,23.383a.261.261,0,0,0,.26.262h2.379a.261.261,0,0,0,.261-.262V13.322a.261.261,0,0,0-.261-.261H74.165a.261.261,0,0,0-.26.261ZM61.073,26.278h7.835V23.666H63.867V20.359h3.6V17.747h-3.6V13.082h5.041V10.471H61.073Z" transform="translate(-7.494 -3.191)" fill="#161819"/>
      <path id="Path_43" data-name="Path 43" d="M147.509,10.444a1.33,1.33,0,0,1,1.408,1.409,1.408,1.408,0,1,1-2.816,0,1.325,1.325,0,0,1,1.408-1.409m-1.134,1.409a1.025,1.025,0,0,0,1.138,1.156,1.041,1.041,0,0,0,1.139-1.156,1.139,1.139,0,1,0-2.277,0m.99.805H147V11h.8a.29.29,0,0,1,.311.3v.486a.226.226,0,0,1-.234.234h-.05l.352.639h-.4l-.288-.59v-.355h.252v-.4h-.369Z" transform="translate(-44.612 -3.189)" fill="#161819"/>
      <path id="Path_44" data-name="Path 44" d="M69.354,2.45l-.17.559H67.407V2.972l.087-.163V.2L67.407.037V0h1.623l.17.559-.029.022-.214-.1H68.1v.982h.522l.162-.086h.038v.656h-.038l-.162-.086H68.1v.576H69.11l.215-.1Zm4.609.522v.037h-.7l-.5-1.086h-.285v.886l.086.163v.037h-.781V2.972l.087-.163V.2L71.776.037V0h1.5a.443.443,0,0,1,.443.443V1.48a.443.443,0,0,1-.345.431l.437.9ZM73.141.533a.049.049,0,0,0-.049-.049h-.62v.956h.62a.049.049,0,0,0,.049-.049ZM78.913,0h-.784V.038L78.2.2l0-.006-.524,1.959L77.161.193l0,.006.076-.162V0h-.856V.038L76.517.2v0l.789,2.613h0l-.087.163v.037h.932V2.972l-.087-.163L78.853.2v0l.131-.162V0ZM63.542.483h.7a.05.05,0,0,1,.05.049V.954h.694V.918L64.9.755V.443A.443.443,0,0,0,64.456,0H63.328a.443.443,0,0,0-.443.443V2.566a.442.442,0,0,0,.443.442h1.127a.443.443,0,0,0,.442-.442V2.253l.086-.162V2.055H64.29v.421a.05.05,0,0,1-.05.049h-.7a.05.05,0,0,1-.049-.049V.533a.05.05,0,0,1,.049-.049m24.3,1.944-.214.1H86.511L87.862.443,87.641,0H86.054l-.17.559.029.022.214-.1h1L85.776,2.565,86,3.009h1.7l.17-.559Zm5.051.544v.037h-.851V2.972l.076-.163v0l-.072-.287h-.911l-.071.286h0l.076.163v.037h-.85V2.972l.131-.163v0L91.21.2,91.123.038V0h.932V.038L91.969.2h0l.79,2.613v0Zm-.964-.93L91.589.689l-.335,1.352Zm-8.6.386-.214.1H82.1V1.95h.522l.162.086h.037V1.38h-.037l-.162.086H82.1V.483h.855l.215.1L83.2.559,83.031,0H81.407V.037L81.493.2v2.61l-.086.163v.038h1.776l.169-.559Z" transform="translate(-19.202)" fill="#161819"/>
    </g>
  </g>
</svg>
