<svg xmlns="http://www.w3.org/2000/svg" width="168.933" height="31.41" viewBox="0 0 168.933 31.41">
  <g id="For_reference_only" transform="translate(-40.2 -29.5)">
    <path id="Path_132" data-name="Path 132" d="M229.45,40.884c0-6.592-5.545-11.384-13.375-11.384S202.7,34.278,202.7,40.884s5.545,11.384,13.375,11.384a16.436,16.436,0,0,0,6.193-1.15l2.64,2.256,4.276-3.731L227,47.741A10.593,10.593,0,0,0,229.45,40.884ZM221.811,43.2l-2.817-2.448-4.07,4.07,1.681,1.445c-.177.015-.354.015-.546.015-3.465,0-6.252-2.02-6.252-5.4s2.787-5.4,6.252-5.4,6.252,2.02,6.252,5.4A4.946,4.946,0,0,1,221.811,43.2Z" transform="translate(-138.537)" fill="#161819"/>
    <path id="Path_133" data-name="Path 133" d="M416.03,54.385c7.417,0,11.93-3.554,11.93-9.777V32H421V43.812c0,3.1-1.9,4.542-4.969,4.542s-4.969-1.445-4.969-4.542V32H404.1V44.608c0,6.223,4.512,9.777,11.93,9.777Z" transform="translate(-310.238 -2.131)" fill="#161819"/>
    <path id="Path_134" data-name="Path 134" d="M584.813,32h-8.1L566.1,54.016h7.358l1.652-3.495h10.971l1.622,3.495h7.727Zm-7.108,13.065,2.949-6.252,2.92,6.252Z" transform="translate(-448.349 -2.131)" fill="#161819"/>
    <path id="Path_135" data-name="Path 135" d="M767.277,37.825V32H742.4v5.825h8.951V54.016h6.96V37.825Z" transform="translate(-598.652 -2.131)" fill="#161819"/>
    <rect id="Rectangle_50" data-name="Rectangle 50" width="6.96" height="22.016" transform="translate(171.309 29.869)" fill="#161819"/>
    <path id="Path_136" data-name="Path 136" d="M1013.1,32l-6.68,14.348L999.83,32H992l10.426,22.016h7.727L1020.578,32Z" transform="translate(-811.445 -2.131)" fill="#161819"/>
    <path id="Path_137" data-name="Path 137" d="M46.865,38.481v2.33h14.6V46.4h-14.6v2.536h14.6v5.589H40.2V32.7H61.464v5.781Z" transform="translate(0 -2.728)" fill="#161819"/>
    <rect id="Rectangle_51" data-name="Rectangle 51" width="21.264" height="5.781" transform="translate(40.2 55.129)" fill="#161819"/>
  </g>
</svg>
