<svg id="Group_46" data-name="Group 46" xmlns="http://www.w3.org/2000/svg" xmlns:xlink="http://www.w3.org/1999/xlink" width="105.254" height="99.556" viewBox="0 0 105.254 99.556">
  <defs>
    <clipPath id="clip-path">
      <rect id="Rectangle_36" data-name="Rectangle 36" width="105.254" height="99.556" fill="#161819"/>
    </clipPath>
  </defs>
  <g id="Group_45" data-name="Group 45" clip-path="url(#clip-path)">
    <path id="Path_118" data-name="Path 118" d="M64.607,38.479C53.578,53.607,36.235,54.568,36.235,54.568c13.69,1.689,24.6,1.205,33.283-.495,5.578-3.059,14.6-9.448,18.384-20.2a63.807,63.807,0,0,1-7.409,17.036c12.115-4.807,17.7-12.121,20-16.2l-6.188.78,7.4-3.28c.133-.336.191-.52.191-.52.635-6.161-.169-10.551-1.342-13.592-1.7-4.4-4.171-5.973-4.171-5.973-7.915.894-13.1,2.653-16.329,4.211l.892,17.538-6-13.575-7.5,13.689c-11.7-2.933-18.682-6.444-22.572-8.974L25.218,21l15.513.7c-.047-.051-.069-.078-.069-.078C36.75,19.539,24.078,17.974,16.544,17.2,26.959,32.1,42.509,40.627,42.509,40.627A64.064,64.064,0,0,1,2.043,0C1.475.929-.943,5.063.4,6.126c1.518,1.2,9.936,14.251,9.936,14.251A96.367,96.367,0,0,0,7.531,31.131l4.3-4.891L9.543,35.551a43.523,43.523,0,0,0,18.082,15.9c9.22.454,25.789-.721,36.982-12.967" transform="translate(0 0)" fill="#161819"/>
    <path id="Path_119" data-name="Path 119" d="M68.866,101.039c-20.625,0-37.346,1.33-37.346,2.971s16.72,2.97,37.346,2.97,37.346-1.33,37.346-2.97-16.72-2.971-37.346-2.971" transform="translate(-11.908 -38.17)" fill="#161819"/>
    <path id="Path_120" data-name="Path 120" d="M32.874,144.686c-.366.366-2.73,3.152-8.244,3.152A10.018,10.018,0,0,1,24.6,127.8a9.759,9.759,0,0,1,7.851,3.376L30.594,132.9a7.467,7.467,0,0,0-5.993-2.758c-4,0-7.063,2.87-7.063,7.654s3.18,7.653,7.231,7.653c4.024,0,5.459-1.773,5.459-1.773v-4.305H25v-2.223h7.879Z" transform="translate(-5.562 -48.281)" fill="#161819"/>
    <path id="Path_121" data-name="Path 121" d="M68.881,147.67H59.313V128.254h2.73v17.081h6.838Z" transform="translate(-22.407 -48.452)" fill="#161819"/>
    <rect id="Rectangle_35" data-name="Rectangle 35" width="2.73" height="19.416" transform="translate(54.52 79.802)" fill="#161819"/>
    <path id="Path_122" data-name="Path 122" d="M121.039,145.137a10.69,10.69,0,0,1-7.259,2.532h-5.853V128.254h5.853a10.69,10.69,0,0,1,7.259,2.532,10.055,10.055,0,0,1,0,14.351m-2.082-12.747a7.407,7.407,0,0,0-5.178-1.8h-3.124v14.716h3.124a7.407,7.407,0,0,0,5.178-1.8,7.847,7.847,0,0,0,0-11.115" transform="translate(-40.772 -48.452)" fill="#161819"/>
    <path id="Path_123" data-name="Path 123" d="M161.163,147.67h-3.292l-5.065-8.357h-2.083v8.357h-2.729V128.255h5.487a7.432,7.432,0,0,1,4.671,1.35,5.413,5.413,0,0,1-2.532,9.427Zm-5.178-16.489a5.179,5.179,0,0,0-3.264-.7h-2v6.585h2a5.369,5.369,0,0,0,3.264-.676,2.935,2.935,0,0,0,1.238-2.617,2.886,2.886,0,0,0-1.238-2.588" transform="translate(-55.909 -48.452)" fill="#161819"/>
  </g>
</svg>
