<svg xmlns="http://www.w3.org/2000/svg" xmlns:xlink="http://www.w3.org/1999/xlink" width="146.589" height="76.174" viewBox="0 0 146.589 76.174">
  <defs>
    <clipPath id="clip-path">
      <rect id="Rectangle_9" data-name="Rectangle 9" width="146.589" height="76.174" fill="#161819"/>
    </clipPath>
  </defs>
  <g id="Group_18" data-name="Group 18" transform="translate(0)">
    <g id="Group_17" data-name="Group 17" transform="translate(0 0)" clip-path="url(#clip-path)">
      <path id="Path_12" data-name="Path 12" d="M201.089,70.537a3.41,3.41,0,1,0,3.409,3.411,3.409,3.409,0,0,0-3.409-3.411m0,6.133a2.722,2.722,0,1,1,2.714-2.722,2.728,2.728,0,0,1-2.714,2.722" transform="translate(-57.909 -20.664)" fill="#161819"/>
      <path id="Path_13" data-name="Path 13" d="M202.836,74.54a.97.97,0,0,0,.55-.936,1.05,1.05,0,0,0-1.119-1.024H200.51v3.675h.842V74.821h.315c.424,0,.671.113.79.507a7.2,7.2,0,0,0,.3.927l.916,0a2.945,2.945,0,0,1-.338-.9,1.045,1.045,0,0,0-.5-.819m-.8-.444h-.674v-.845h.592c.258,0,.566.106.566.4a.45.45,0,0,1-.485.444" transform="translate(-58.74 -21.263)" fill="#161819"/>
      <path id="Path_14" data-name="Path 14" d="M46.833,93.983a9.314,9.314,0,0,1-3.458,2.323c-1.166.375-4.488.667-5.466-2.079-.211-.593-.039-.777.5-.936.8-.238,2.867-.845,5.048-1.662a26.027,26.027,0,0,0,4.295-2.014,1.865,1.865,0,0,0,.7-2.547c-1.389-3.121-4.529-6.388-9.752-5.395a8.9,8.9,0,0,0-7.122,8.8,9.03,9.03,0,0,0,7.247,9.346,9.75,9.75,0,0,0,10.051-3.983c.748-1.178-1.358-2.576-2.041-1.853m-9.4-4.165c-.407-1.122-.082-4.555,1.811-5.205,1.99-.682,3.212.344,3.807,2.35a2.329,2.329,0,0,1-.071,1.823,3.432,3.432,0,0,1-1.548.874l-1.49.494c-1.465.5-2.164.6-2.508-.336" transform="translate(-9.251 -23.874)" fill="#161819"/>
      <path id="Path_15" data-name="Path 15" d="M115.581,93.983a9.32,9.32,0,0,1-3.458,2.323c-1.166.375-4.489.667-5.466-2.079-.211-.593-.04-.777.5-.936.8-.238,2.867-.845,5.047-1.662a26.072,26.072,0,0,0,4.3-2.014,1.866,1.866,0,0,0,.7-2.547c-1.39-3.121-4.53-6.388-9.752-5.395a8.9,8.9,0,0,0-7.123,8.8,9.03,9.03,0,0,0,7.247,9.346,9.749,9.749,0,0,0,10.05-3.983c.749-1.178-1.358-2.576-2.041-1.853m-9.4-4.165a5.882,5.882,0,0,1,.233-3.4,2.834,2.834,0,0,1,1.577-1.8,2.543,2.543,0,0,1,2.3.086,3.692,3.692,0,0,1,1.511,2.265,2.332,2.332,0,0,1-.071,1.823,3.393,3.393,0,0,1-1.548.874c-.645.231-1.219.416-1.49.5-1.475.462-2.164.59-2.508-.344" transform="translate(-29.39 -23.874)" fill="#161819"/>
      <path id="Path_16" data-name="Path 16" d="M167.988,93.983a9.314,9.314,0,0,1-3.458,2.323c-1.166.375-4.488.667-5.466-2.079-.211-.593-.04-.777.5-.936.8-.238,2.868-.845,5.048-1.662a26.028,26.028,0,0,0,4.295-2.014,1.865,1.865,0,0,0,.7-2.547c-1.389-3.121-4.529-6.388-9.752-5.395a8.9,8.9,0,0,0-7.122,8.8,9.03,9.03,0,0,0,7.247,9.346,9.75,9.75,0,0,0,10.051-3.983c.748-1.178-1.359-2.576-2.041-1.853m-9.4-4.165a5.884,5.884,0,0,1,.234-3.4,2.833,2.833,0,0,1,1.577-1.8,2.545,2.545,0,0,1,2.3.086,3.689,3.689,0,0,1,1.51,2.265,2.326,2.326,0,0,1-.071,1.823,3.389,3.389,0,0,1-1.548.874c-.645.231-1.218.416-1.49.5-1.474.462-2.164.59-2.508-.344" transform="translate(-44.744 -23.874)" fill="#161819"/>
      <path id="Path_17" data-name="Path 17" d="M13.938,92.619a1.857,1.857,0,0,1-.77,1.731l-1.184.535a.459.459,0,0,0-.272.488,1.033,1.033,0,0,0,.016.176l.139,1.343c.062.366.312.425.8.425h8.572c.484,0,.733-.059.8-.425l.139-1.343a1.111,1.111,0,0,0,.016-.176.458.458,0,0,0-.272-.488l-1.184-.535a1.857,1.857,0,0,1-.77-1.731V77.768a1.857,1.857,0,0,1,.77-1.731l1.184-.535a.459.459,0,0,0,.272-.488,1.1,1.1,0,0,0-.016-.176l-.139-1.009c-.062-.366-.312-.425-.8-.425H13.065c-.484,0-.733.059-.8.425l-.139,1.009a1.021,1.021,0,0,0-.016.176.459.459,0,0,0,.272.488l.964.535c.551.315.588,1.022.588,1.731V81.91a.522.522,0,0,1-.522.521H8.772a.521.521,0,0,1-.521-.521V77.768c0-.709.037-1.416.588-1.731L9.8,75.5a.459.459,0,0,0,.272-.488,1.1,1.1,0,0,0-.016-.176l-.139-1.009c-.062-.366-.312-.425-.8-.425H.952c-.484,0-.734.059-.8.425L.017,74.838A1.03,1.03,0,0,0,0,75.014a.459.459,0,0,0,.272.488l1.183.535a1.856,1.856,0,0,1,.77,1.731V92.619a1.856,1.856,0,0,1-.77,1.731l-1.183.535A.459.459,0,0,0,0,95.373a1.043,1.043,0,0,0,.017.176l.139,1.343c.062.366.311.425.8.425H9.524c.484,0,.733-.059.8-.425l.14-1.343a1.111,1.111,0,0,0,.016-.176.459.459,0,0,0-.272-.488L9.02,94.35a1.856,1.856,0,0,1-.77-1.731V86.581a.521.521,0,0,1,.521-.522h4.645a.522.522,0,0,1,.522.522Z" transform="translate(0 -21.504)" fill="#161819"/>
      <path id="Path_18" data-name="Path 18" d="M64.938,75.7a3.1,3.1,0,1,1-3.094-2.986A3.041,3.041,0,0,1,64.938,75.7" transform="translate(-17.211 -21.303)" fill="#161819"/>
      <path id="Path_19" data-name="Path 19" d="M57.964,100.015c-.465,0-.7-.057-.764-.408l-.134-1.339a.922.922,0,0,1-.009-.169.458.458,0,0,1,.254-.467l.921-.513a1.825,1.825,0,0,0,.739-1.662v-8.48c0-.709-.122-1.616-.745-1.927l-.59-.339a.459.459,0,0,1-.272-.488,1.028,1.028,0,0,1,.016-.176l.139-1.008c.062-.366.312-.426.8-.426h5.791a.522.522,0,0,1,.522.522V95.456a1.825,1.825,0,0,0,.738,1.662l.921.513a.458.458,0,0,1,.255.467.93.93,0,0,1-.01.169L66.4,99.607c-.059.351-.3.408-.764.408Z" transform="translate(-16.715 -24.202)" fill="#161819"/>
      <path id="Path_20" data-name="Path 20" d="M79.973,83.247s.325-.159.912-.443c1.16-.544,3.43-1.519,5.306-.921,1.626.518,3.03,1.7,3.03,4.8v9.383c0,.4.018.566.2.667.25.137.684-.272,1.1-.486s.652.037.909.322a.913.913,0,0,1,.275,1.058,4.322,4.322,0,0,1-4.063,2.287c-1.717,0-3.9-.984-3.9-3.557V87.319a1.591,1.591,0,0,0-1.78-1.763c-1.174.145-2.029,1.128-2.029,2.879v6.752a1.825,1.825,0,0,0,.739,1.662l.921.513a.458.458,0,0,1,.254.467.923.923,0,0,1-.009.169L81.7,99.338c-.059.351-.3.408-.764.408H73.266c-.465,0-.7-.057-.764-.408L72.369,98a.922.922,0,0,1-.009-.169.458.458,0,0,1,.255-.467l.921-.513a1.825,1.825,0,0,0,.739-1.662v-8.48c0-.709-.122-1.616-.744-1.927l-.59-.339a.46.46,0,0,1-.272-.488,1.1,1.1,0,0,1,.016-.176l.139-1.008c.062-.366.312-.426.8-.426h5.455a.724.724,0,0,1,.719.522Z" transform="translate(-21.198 -23.933)" fill="#161819"/>
      <path id="Path_21" data-name="Path 21" d="M185.868,83.247s.325-.159.913-.443c1.159-.544,3.429-1.519,5.3-.921,1.626.518,3.03,1.7,3.03,4.8v9.383c0,.4.017.566.2.667.25.137.684-.272,1.1-.486s.652.037.909.322a.914.914,0,0,1,.275,1.058,4.322,4.322,0,0,1-4.063,2.287c-1.717,0-3.9-.984-3.9-3.557V87.319a1.591,1.591,0,0,0-1.78-1.763c-1.174.145-2.029,1.128-2.029,2.879v6.752a1.825,1.825,0,0,0,.739,1.662l.921.513a.458.458,0,0,1,.254.467.923.923,0,0,1-.009.169l-.134,1.339c-.059.351-.3.408-.764.408h-7.673c-.465,0-.7-.057-.764-.408L178.264,98a.922.922,0,0,1-.009-.169.458.458,0,0,1,.254-.467l.921-.513a1.825,1.825,0,0,0,.739-1.662v-8.48c0-.709-.122-1.616-.744-1.927l-.59-.339a.459.459,0,0,1-.273-.488,1.112,1.112,0,0,1,.017-.176l.14-1.008c.062-.366.311-.426.8-.426h5.455a.724.724,0,0,1,.719.522Z" transform="translate(-52.221 -23.933)" fill="#161819"/>
      <path id="Path_22" data-name="Path 22" d="M142.7,92.992a3.779,3.779,0,0,0,1.416,1.427l.921.513a.459.459,0,0,1,.255.467,1.009,1.009,0,0,1-.01.17l-.134,1.338c-.059.351-.3.408-.764.408h-4.632c-.792,0-.851-.229-1.209-.875l-3.883-7.072-1.459,1.4v1.99a1.878,1.878,0,0,0,.85,1.661l.921.513a.459.459,0,0,1,.255.467.933.933,0,0,1-.009.17l-.134,1.338c-.059.351-.3.408-.764.408h-7.673c-.465,0-.7-.057-.764-.408l-.133-1.338a.88.88,0,0,1-.01-.17.459.459,0,0,1,.255-.467l.921-.513a1.824,1.824,0,0,0,.738-1.661V77.577a1.812,1.812,0,0,0-.738-1.66l-.921-.513a.461.461,0,0,1-.255-.469.869.869,0,0,1,.01-.168l.133-.955c.06-.351.3-.408.764-.408h5.56a.99.99,0,0,1,.99.991V85.917l2.472-2.231c.352-.3.93-.81,1.155-1.034s.271-.559-.049-.691l-.873-.4a.419.419,0,0,1-.247-.445.965.965,0,0,1,.015-.16l.127-1.225c.057-.333.285-.387.725-.387h6.659c.441,0,.669.054.725.387l.127,1.225a1.585,1.585,0,0,1,.014.16c.014.266-.3.393-.492.481a4.743,4.743,0,0,0-.9.383,9.075,9.075,0,0,0-1.469,1.131l-2.567,2.464Z" transform="translate(-36.836 -21.504)" fill="#161819"/>
      <path id="Path_23" data-name="Path 23" d="M141.145,53.746l.007-.114h-.761a1.01,1.01,0,0,0,1.075,1.138,1.114,1.114,0,0,0,1.206-1.21.892.892,0,0,0-.627-.962v-.015a.939.939,0,0,0,.5-.958.969.969,0,0,0-1.036-1.066c-.746,0-.981.544-.957,1.2h.706v-.085c0-.179.037-.424.272-.424s.279.235.279.416c0,.454-.185.539-.625.539v.706c.46-.016.614.112.614.569,0,.241-.021.577-.351.577a.3.3,0,0,1-.3-.317" transform="translate(-41.128 -14.812)" fill="#161819"/>
      <path id="Path_24" data-name="Path 24" d="M138.636,50.645h-2.2v.7h1.1l-1.273,3.383h.844Z" transform="translate(-39.917 -14.837)" fill="#161819"/>
      <path id="Path_25" data-name="Path 25" d="M133.413,52.5v-.011a.853.853,0,0,0,.559-.863,1.022,1.022,0,1,0-2.042,0,.866.866,0,0,0,.555.861V52.5a1.019,1.019,0,0,0-.709,1.08,1.172,1.172,0,1,0,2.344,0,1.01,1.01,0,0,0-.707-1.08m-.477-1.313c.22,0,.249.282.249.435s0,.458-.249.458c-.2,0-.227-.313-.227-.463s.033-.43.227-.43m.009,2.872c-.281,0-.339-.37-.339-.577s.058-.593.333-.593.359.389.359.593-.078.577-.354.577" transform="translate(-38.604 -14.812)" fill="#161819"/>
      <path id="Path_26" data-name="Path 26" d="M129.721,50.645h-1.172v.7h.392v3.383h.78Z" transform="translate(-37.659 -14.837)" fill="#161819"/>
      <path id="Path_27" data-name="Path 27" d="M64.869,50.645H63.083v4.084h1.794v-.76h-.913v-.921h.794v-.757h-.794V51.4h.9Z" transform="translate(-18.481 -14.837)" fill="#161819"/>
      <path id="Path_28" data-name="Path 28" d="M76.571,55.06a.514.514,0,1,0,.5.51.5.5,0,0,0-.5-.51" transform="translate(-22.28 -16.13)" fill="#161819"/>
      <path id="Path_29" data-name="Path 29" d="M74.258,50.645h-2.28V51.4h.693v3.327h.891V51.4h.7Z" transform="translate(-21.086 -14.837)" fill="#161819"/>
      <path id="Path_30" data-name="Path 30" d="M69.419,51.541v-.788a1.72,1.72,0,0,0-.792-.193,1.121,1.121,0,0,0-1.169,1.2,1.337,1.337,0,0,0,.824,1.208c.245.17.525.284.525.594a.464.464,0,0,1-.516.447,1.158,1.158,0,0,1-.668-.219v.776a1.513,1.513,0,0,0,.763.206,1.2,1.2,0,0,0,1.289-1.276c0-1.106-1.349-1.146-1.349-1.815a.4.4,0,0,1,.444-.4,1.077,1.077,0,0,1,.649.264" transform="translate(-19.762 -14.812)" fill="#161819"/>
      <path id="Path_31" data-name="Path 31" d="M108.226,49.929a.931.931,0,0,1-.262.9c-.149.129-.295.23-.295.23s-.141.107-.31.209a.931.931,0,0,1-.94-.03s-.521-.323-1.366-.894c-2.68-1.811-8.663-5.87-11.934-8.2-3.271,2.326-9.254,6.385-11.934,8.2-.845.571-1.366.894-1.366.894a.931.931,0,0,1-.94.03c-.168-.1-.31-.209-.31-.209s-.146-.1-.295-.23a.93.93,0,0,1-.262-.9s.026-.107.077-.3a.818.818,0,0,0,.185.245c.149.129.295.23.295.23s.141.107.31.209a.931.931,0,0,0,.94-.03s.521-.323,1.366-.894c2.68-1.811,8.663-5.869,11.934-8.2,3.271,2.327,9.254,6.385,11.934,8.2.845.571,1.366.894,1.366.894a.931.931,0,0,0,.94.03c.168-.1.31-.209.31-.209s.146-.1.295-.23a.83.83,0,0,0,.185-.245c.051.2.077.3.077.3M82.55,33.512c-3.223-2.392-8.932-6.828-11.483-8.817-.8-.628-1.273-1.023-1.273-1.023a.859.859,0,0,1-.221-.271c-.014.042-.061.185-.1.346a.931.931,0,0,0,.319.885s.468.4,1.273,1.023c2.489,1.94,7.98,6.208,11.241,8.637q.125-.407.243-.779M116.667,23.4a.856.856,0,0,1-.221.27s-.468.4-1.273,1.023c-2.551,1.989-8.26,6.426-11.482,8.817q.117.371.243.779c3.259-2.428,8.751-6.7,11.24-8.637.8-.627,1.273-1.023,1.273-1.023a.93.93,0,0,0,.319-.884,3.545,3.545,0,0,0-.1-.346" transform="translate(-20.348 -6.855)" fill="#161819"/>
      <path id="Path_32" data-name="Path 32" d="M85.17,26.013,80.011,41.868a.066.066,0,0,0,.024.075s.037.033.078.063.085.056.085.056a.067.067,0,0,0,.078,0l13.485-9.807,13.485,9.807a.068.068,0,0,0,.079,0s.043-.026.084-.056.078-.063.078-.063a.066.066,0,0,0,.025-.075l-5.16-15.856,13.495-9.795a.067.067,0,0,0,.025-.075s-.011-.049-.027-.1-.036-.094-.036-.094a.066.066,0,0,0-.064-.046l-16.675.007L93.927.052A.067.067,0,0,0,93.863,0s-.05,0-.1,0-.1,0-.1,0A.067.067,0,0,0,93.6.052l-5.145,15.86L71.778,15.9a.066.066,0,0,0-.064.047s-.02.046-.035.094-.027.1-.027.1a.067.067,0,0,0,.025.075Z" transform="translate(-20.99 0)" fill="#161819"/>
    </g>
  </g>
</svg>
