<svg id="Group_29" data-name="Group 29" xmlns="http://www.w3.org/2000/svg" xmlns:xlink="http://www.w3.org/1999/xlink" width="116.432" height="109.684" viewBox="0 0 116.432 109.684">
  <defs>
    <clipPath id="clip-path">
      <rect id="Rectangle_20" data-name="Rectangle 20" width="116.432" height="109.684" fill="#161819"/>
    </clipPath>
  </defs>
  <g id="Group_28" data-name="Group 28" clip-path="url(#clip-path)">
    <path id="Path_53" data-name="Path 53" d="M4.278,142.777l0,3.12-4.255-.005,0-3.121Zm-.007,4.473-.016,11.129L0,158.374l.016-11.13Zm5.649,1.688a4.276,4.276,0,0,1,1.545-1.482,4.194,4.194,0,0,1,1.948-.434,1.691,1.691,0,0,1,.7.11l-.005,3.514h-.09a3.7,3.7,0,0,0-2.928.487,3.194,3.194,0,0,0-1.039,2.694l-.007,4.561-4.256-.005.016-11.13,4.053.005,0,1.681Zm8.306,9.361a5.9,5.9,0,0,1-1.98-1.235,5.45,5.45,0,0,1-1.27-1.868,6.334,6.334,0,0,1,.007-4.692,5.548,5.548,0,0,1,1.275-1.875,5.808,5.808,0,0,1,1.983-1.241,7.776,7.776,0,0,1,5.2.007,5.688,5.688,0,0,1,1.968,1.247,5.5,5.5,0,0,1,1.247,1.878,6.488,6.488,0,0,1-.007,4.692,5.389,5.389,0,0,1-1.252,1.864,5.784,5.784,0,0,1-1.972,1.23,7.776,7.776,0,0,1-5.2-.007m4.046-3.158a5.5,5.5,0,0,0,.007-4.561,1.61,1.61,0,0,0-1.485-.864,1.561,1.561,0,0,0-1.465.86,5.733,5.733,0,0,0-.007,4.561,1.559,1.559,0,0,0,1.462.864,1.608,1.608,0,0,0,1.488-.859m10-6.326a4.973,4.973,0,0,1,1.59-1.395,4.367,4.367,0,0,1,2.105-.477,3.76,3.76,0,0,1,3.016,1.182,4.589,4.589,0,0,1,1.009,3.1l-.01,7.2-4.255-.005.009-6.2a2.31,2.31,0,0,0-.381-1.4,1.4,1.4,0,0,0-1.215-.525,1.515,1.515,0,0,0-1.273.6,2.414,2.414,0,0,0-.464,1.516l-.009,6-4.255-.006.016-11.13,4.053.006,0,1.528Zm13.034,9.663a7.357,7.357,0,0,1-2.341-1,4.927,4.927,0,0,1-1.573-1.672,4.833,4.833,0,0,1-.593-2.358l4.819.007a1.792,1.792,0,0,0,.819,1.387,3.492,3.492,0,0,0,1.879.45,4.128,4.128,0,0,0,.709-.065,2.275,2.275,0,0,0,.664-.217,1.428,1.428,0,0,0,.485-.4.96.96,0,0,0,.193-.6.885.885,0,0,0-.2-.59,1.658,1.658,0,0,0-.585-.415,6.155,6.155,0,0,0-.956-.328q-.574-.154-1.317-.329-1.013-.241-2.071-.57a8.37,8.37,0,0,1-1.924-.865,4.543,4.543,0,0,1-1.416-1.366,3.665,3.665,0,0,1-.549-2.074,4.551,4.551,0,0,1,.533-2.268,4.343,4.343,0,0,1,1.432-1.526,6.373,6.373,0,0,1,2.117-.859A11.69,11.69,0,0,1,48,142.552a10.869,10.869,0,0,1,2.4.265,6.367,6.367,0,0,1,2.059.843,4.45,4.45,0,0,1,1.439,1.486,4.32,4.32,0,0,1,.56,2.172l-4.661-.007a1.6,1.6,0,0,0-.6-1.015,2.318,2.318,0,0,0-1.452-.384,2.352,2.352,0,0,0-1.273.3.9.9,0,0,0-.485.785.722.722,0,0,0,.246.568,2.156,2.156,0,0,0,.732.383,9.87,9.87,0,0,0,1.193.307q.708.142,1.609.362a19.785,19.785,0,0,1,1.98.581,6.464,6.464,0,0,1,1.733.908,4.051,4.051,0,0,1,1.684,3.493,4.5,4.5,0,0,1-.555,2.258,4.909,4.909,0,0,1-1.5,1.624,7.054,7.054,0,0,1-2.208.99,10.316,10.316,0,0,1-2.68.335,12.262,12.262,0,0,1-2.915-.331m14.274-.123a5.905,5.905,0,0,1-1.98-1.235,5.457,5.457,0,0,1-1.27-1.868,6.339,6.339,0,0,1,.007-4.692,5.575,5.575,0,0,1,1.275-1.875,5.817,5.817,0,0,1,1.983-1.241,7.787,7.787,0,0,1,5.2.007,5.7,5.7,0,0,1,1.968,1.247,5.5,5.5,0,0,1,1.247,1.879,6.479,6.479,0,0,1-.007,4.692,5.393,5.393,0,0,1-1.252,1.864,5.791,5.791,0,0,1-1.972,1.23,7.787,7.787,0,0,1-5.2-.007M63.63,155.2a5.5,5.5,0,0,0,.007-4.561,1.608,1.608,0,0,0-1.484-.864,1.558,1.558,0,0,0-1.465.86,5.734,5.734,0,0,0-.007,4.561,1.561,1.561,0,0,0,1.462.864,1.608,1.608,0,0,0,1.487-.86m13.529,1.841h-.067a4.577,4.577,0,0,1-1.522,1.329,4.359,4.359,0,0,1-2.061.455,4.7,4.7,0,0,1-1.8-.319,3.433,3.433,0,0,1-1.271-.886,3.772,3.772,0,0,1-.764-1.354,5.55,5.55,0,0,1-.257-1.746l.01-7.179,4.255.006-.009,6.2q0,1.767,1.528,1.769a1.637,1.637,0,0,0,1.3-.522,2.1,2.1,0,0,0,.463-1.44l.009-6,4.255.006-.015,11.13-4.053-.006Zm9.715-8a4.274,4.274,0,0,1,1.545-1.482,4.178,4.178,0,0,1,1.948-.434,1.669,1.669,0,0,1,.7.11l-.005,3.513h-.09a3.7,3.7,0,0,0-2.927.487A3.194,3.194,0,0,0,87,153.93l-.007,4.561-4.255-.006.016-11.13,4.053.006,0,1.68ZM95.2,158.4a6.02,6.02,0,0,1-1.991-1.236A5.363,5.363,0,0,1,91.93,155.3a6.33,6.33,0,0,1,.007-4.692,5.475,5.475,0,0,1,1.286-1.875,5.95,5.95,0,0,1,1.994-1.241,7.67,7.67,0,0,1,4.8-.113,5.4,5.4,0,0,1,1.732.919,4.689,4.689,0,0,1,1.18,1.409,4.836,4.836,0,0,1,.56,1.8l-4.1-.005a2.5,2.5,0,0,0-.561-1.169,1.419,1.419,0,0,0-1.08-.4,1.577,1.577,0,0,0-1.465.806,4.422,4.422,0,0,0-.476,2.225,4.138,4.138,0,0,0,.493,2.194,1.634,1.634,0,0,0,1.485.8,1.424,1.424,0,0,0,1.182-.489,2.7,2.7,0,0,0,.486-1.45l4.1.005a4.427,4.427,0,0,1-.419,1.909,4.638,4.638,0,0,1-1.173,1.537,5.478,5.478,0,0,1-1.825,1.023A7.647,7.647,0,0,1,95.2,158.4m12.574-.016a5.923,5.923,0,0,1-1.98-1.224,5.377,5.377,0,0,1-1.281-1.868,6.087,6.087,0,0,1-.447-2.368,6.022,6.022,0,0,1,.453-2.345,5.653,5.653,0,0,1,1.264-1.875,5.767,5.767,0,0,1,1.938-1.241,7.2,7.2,0,0,1,4.874-.037,5.976,5.976,0,0,1,1.834,1.1,5.518,5.518,0,0,1,1.55,2.359,8.56,8.56,0,0,1,.446,3.077l-8.2-.011a2.794,2.794,0,0,0,.73,1.529,2.07,2.07,0,0,0,1.519.548,1.691,1.691,0,0,0,1.6-.827l4.12.006a3.611,3.611,0,0,1-.757,1.461,6.157,6.157,0,0,1-3.11,1.938,8.357,8.357,0,0,1-1.993.216,7.174,7.174,0,0,1-2.566-.44m1.137-8.062a2.906,2.906,0,0,0-.677,1.45l3.962.005a2.569,2.569,0,0,0-.639-1.463,1.7,1.7,0,0,0-1.271-.525,1.779,1.779,0,0,0-1.374.533" transform="translate(0 -49.171)" fill="#161819" fill-rule="evenodd"/>
    <path id="Path_54" data-name="Path 54" d="M65.663,0a42.837,42.837,0,1,0,43.209,42.836A43.023,43.023,0,0,0,65.663,0M44.7,22.038H56.5l-.012,9.289-11.8-.018Zm-3.67,23.451c1.617-.523,3.578-1.027,3.581-2.419l.013-9.321,11.878.017-.011,7.882c-.006,3.9-1.328,6.089-4.234,6.883,3.041,1.208,4.22,3.359,4.213,7.958l-.009,6.744-11.878-.093.012-8.815c0-1.76-1.957-1.974-3.573-2.52ZM74.343,64.443c-10.7-.014-15.819-5.675-15.809-12.816l0-2.161,11.991.016v.94c0,2.332,1.214,3.932,3.544,3.936,2.149,0,3.2-.981,3.207-2.642C77.284,47,58.946,47.766,58.964,34.548c.01-7.126,4.569-13.334,15.908-13.319,10.189.014,15.243,5.686,15.233,12.81l0,2.322-11.986-.017,0-1.33c0-1.917-.994-3.831-3.261-3.835-1.8,0-2.849.991-2.851,2.587-.007,5.218,18.321,3.9,18.3,17.117-.01,7.132-4.787,13.576-15.967,13.56" transform="translate(-7.746 0)" fill="#161819" fill-rule="evenodd"/>
  </g>
</svg>
