<svg id="Group_44" data-name="Group 44" xmlns="http://www.w3.org/2000/svg" xmlns:xlink="http://www.w3.org/1999/xlink" width="80.102" height="112.881" viewBox="0 0 80.102 112.881">
  <defs>
    <clipPath id="clip-path">
      <rect id="Rectangle_34" data-name="Rectangle 34" width="80.102" height="112.881" fill="#161819"/>
    </clipPath>
  </defs>
  <g id="Group_43" data-name="Group 43" clip-path="url(#clip-path)">
    <path id="Path_98" data-name="Path 98" d="M79.292,78.784l-.029.009.029-.008Z" transform="translate(-29.827 -29.646)" fill="#161819"/>
    <path id="Path_99" data-name="Path 99" d="M64.766,6.145h9.191V71.75H6.145V63.663H0V77.894H80.1V0H64.766Z" transform="translate(0 0)" fill="#161819"/>
    <rect id="Rectangle_29" data-name="Rectangle 29" width="8.873" height="6.145" transform="translate(45.332)" fill="#161819"/>
    <rect id="Rectangle_30" data-name="Rectangle 30" width="8.873" height="6.145" transform="translate(25.897)" fill="#161819"/>
    <rect id="Rectangle_31" data-name="Rectangle 31" width="6.145" height="8.873" transform="translate(0 44.228)" fill="#161819"/>
    <path id="Path_100" data-name="Path 100" d="M15.336,0H0V14.232H6.145V6.145h9.191Z" transform="translate(0 0)" fill="#161819"/>
    <rect id="Rectangle_32" data-name="Rectangle 32" width="6.145" height="8.873" transform="translate(0 24.793)" fill="#161819"/>
    <path id="Path_101" data-name="Path 101" d="M68.052,75.255c-.079,0-.159.009-.24.009H52.062v6.2h15.75c.125,0,.248,0,.371-.007l.169-.007c.052,0,.1,0,.156-.009l.163-.012c.114-.009.227-.02.34-.033l.014,0a10.245,10.245,0,0,0,8.379-6.719,10.175,10.175,0,0,0,0-6.758c-.09-.254-.191-.508-.3-.759l-.087.089h0q-.2.2-.409.39t-.429.37a11.079,11.079,0,0,1-1.893,1.249q-.254.132-.514.251c-.263.12-.531.23-.8.327a11.015,11.015,0,0,1-1.332.392,3.92,3.92,0,0,1,.148,1.071,3.986,3.986,0,0,1-3.445,3.939Z" transform="translate(-19.591 -25.269)" fill="#161819"/>
    <path id="Path_102" data-name="Path 102" d="M62.19,41.032a4.006,4.006,0,0,1,3.387,3.262c0,.023.007.047.009.07a4.052,4.052,0,0,1,.049.606,3.986,3.986,0,0,1-3.446,3.939,4.083,4.083,0,0,1-.529.036H46.218v6.2H61.66a10.133,10.133,0,0,0,3.472-.61c.248-.09.5-.192.736-.3.16-.074.319-.15.474-.231a10.246,10.246,0,0,0,1.749-1.154c.135-.11.267-.225.4-.341s.255-.238.378-.361.243-.251.359-.38a10.154,10.154,0,0,0,2.028-10.17c-.064-.183-.135-.362-.21-.54l-.06-.138A10.179,10.179,0,0,0,61.66,34.8H35.711V69.21h6.2V41H61.66a3.929,3.929,0,0,1,.53.036" transform="translate(-13.438 -13.095)" fill="#161819"/>
    <path id="Path_103" data-name="Path 103" d="M5.449,148.178a3.531,3.531,0,0,1-2.3.664H2.067V152.1H0v-8.805H3.152a3.534,3.534,0,0,1,2.3.663,2.566,2.566,0,0,1,.919,2.106,2.608,2.608,0,0,1-.919,2.119m-1.6-3.05a1.62,1.62,0,0,0-1-.243h-.8v2.361h.8a1.625,1.625,0,0,0,1-.242,1.131,1.131,0,0,0,.422-.945,1.1,1.1,0,0,0-.422-.931" transform="translate(0 -53.921)" fill="#161819"/>
    <path id="Path_104" data-name="Path 104" d="M22.886,152.1h-2.4l-1.851-3.369h-.651V152.1H15.918v-8.806h3.165a3.834,3.834,0,0,1,2.323.625,2.66,2.66,0,0,1-.753,4.544Zm-3.037-6.981a1.7,1.7,0,0,0-1.059-.23h-.817v2.259h.817a1.7,1.7,0,0,0,1.059-.243.986.986,0,0,0,.447-.894,1,1,0,0,0-.447-.893" transform="translate(-5.99 -53.921)" fill="#161819"/>
    <path id="Path_105" data-name="Path 105" d="M36.241,152.165a4.551,4.551,0,1,1,0-9.1,4.551,4.551,0,1,1,0,9.1m0-7.338a2.756,2.756,0,1,0,2.578,2.744,2.539,2.539,0,0,0-2.578-2.744" transform="translate(-11.88 -53.835)" fill="#161819"/>
    <path id="Path_106" data-name="Path 106" d="M59.582,150.972a4.178,4.178,0,0,1-3.178,1.2,4.544,4.544,0,1,1,0-9.087,4.3,4.3,0,0,1,3.024,1l-.638,1.71a3.375,3.375,0,0,0-2.272-.919,2.713,2.713,0,0,0,0,5.424,3.247,3.247,0,0,0,2.374-.932Z" transform="translate(-19.487 -53.843)" fill="#161819"/>
    <path id="Path_107" data-name="Path 107" d="M76.861,152.1h-2.4l-1.851-3.369H71.96V152.1H69.893v-8.806h3.165a3.834,3.834,0,0,1,2.323.625,2.66,2.66,0,0,1-.753,4.544Zm-3.037-6.981a1.7,1.7,0,0,0-1.059-.23h-.817v2.259h.817a1.7,1.7,0,0,0,1.059-.243.986.986,0,0,0,.447-.894,1,1,0,0,0-.447-.893" transform="translate(-26.301 -53.921)" fill="#161819"/>
    <path id="Path_108" data-name="Path 108" d="M93.671,152.089H91.425l-.626-1.774H87.66l-.626,1.774H84.891l3.318-8.818h2.144Zm-3.344-3.383-1.1-3.164-1.1,3.164Z" transform="translate(-31.945 -53.913)" fill="#161819"/>
    <path id="Path_109" data-name="Path 109" d="M109.767,144.937h-3.445v2.157h3.241v1.647h-3.241V152.1h-2.055v-8.805h5.5Z" transform="translate(-39.235 -53.92)" fill="#161819"/>
    <path id="Path_110" data-name="Path 110" d="M124.442,144.924h-2.272V152.1H120.1v-7.172h-2.272v-1.633h6.611Z" transform="translate(-44.34 -53.92)" fill="#161819"/>
    <path id="Path_111" data-name="Path 111" d="M6.336,174.353a4.145,4.145,0,0,1-2.443.621H0V165.45H3.244a5.207,5.207,0,0,1,2.347.4,2.154,2.154,0,0,1,1.215,2,2.216,2.216,0,0,1-1.395,2.1v.028a2.314,2.314,0,0,1,1.975,2.264,2.414,2.414,0,0,1-1.05,2.112M4.141,167.3a1.68,1.68,0,0,0-.994-.193H2.223V169.3h.869a1.734,1.734,0,0,0,1.049-.206,1,1,0,0,0,.47-.912.943.943,0,0,0-.47-.883m.5,3.81a1.921,1.921,0,0,0-1.188-.263H2.223v2.43H3.451a1.921,1.921,0,0,0,1.188-.263,1.181,1.181,0,0,0,0-1.9" transform="translate(0 -62.259)" fill="#161819"/>
    <path id="Path_112" data-name="Path 112" d="M26.082,171a4.089,4.089,0,0,1-.911,3,4.029,4.029,0,0,1-3.078,1.132A4.063,4.063,0,0,1,19,173.995a4.15,4.15,0,0,1-.9-3V165.45h2.25V171a2.411,2.411,0,0,0,.372,1.587,1.87,1.87,0,0,0,2.734,0A2.411,2.411,0,0,0,23.832,171V165.45h2.25Z" transform="translate(-6.812 -62.259)" fill="#161819"/>
    <rect id="Rectangle_33" data-name="Rectangle 33" width="2.236" height="9.525" transform="translate(23.701 103.191)" fill="#161819"/>
    <path id="Path_113" data-name="Path 113" d="M54.322,174.975H48.8V165.45h2.222v7.675h3.3Z" transform="translate(-18.364 -62.259)" fill="#161819"/>
    <path id="Path_114" data-name="Path 114" d="M70.6,173.842a5.623,5.623,0,0,1-3.672,1.131h-3.23v-9.525h3.23a5.544,5.544,0,0,1,3.672,1.146,4.431,4.431,0,0,1,1.546,3.616,4.483,4.483,0,0,1-1.546,3.631m-1.56-5.867a2.867,2.867,0,0,0-1.988-.677H65.917v5.784h1.132a2.641,2.641,0,0,0,2.83-2.872,2.949,2.949,0,0,0-.842-2.236" transform="translate(-23.968 -62.259)" fill="#161819"/>
    <path id="Path_115" data-name="Path 115" d="M89.974,174.975H83.679V165.45h6.17v1.78H85.9v1.947h3.727v1.78H85.9v2.209h4.072Z" transform="translate(-31.489 -62.259)" fill="#161819"/>
    <path id="Path_116" data-name="Path 116" d="M107.948,174.974h-2.6l-2-3.644h-.7v3.644h-2.236v-9.525h3.423a4.143,4.143,0,0,1,2.512.676,2.877,2.877,0,0,1-.815,4.915Zm-3.284-7.551a1.844,1.844,0,0,0-1.146-.248h-.884v2.444h.884a1.839,1.839,0,0,0,1.146-.263,1.068,1.068,0,0,0,.482-.967,1.084,1.084,0,0,0-.482-.966" transform="translate(-37.785 -62.259)" fill="#161819"/>
    <path id="Path_117" data-name="Path 117" d="M123.04,174.286a4.052,4.052,0,0,1-2.581.787,5.158,5.158,0,0,1-3.382-1.436l1.1-1.628a3.926,3.926,0,0,0,2.485,1.2c.718,0,1.27-.344,1.27-.98s-.7-.9-1.118-1.049-1.131-.4-1.449-.538a3.73,3.73,0,0,1-1.132-.69,2.351,2.351,0,0,1-.745-1.836,2.683,2.683,0,0,1,.994-2.084,3.892,3.892,0,0,1,2.512-.759,4.691,4.691,0,0,1,3.023,1.174l-.952,1.56a3.286,3.286,0,0,0-2.126-.967c-.718,0-1.243.276-1.243.856s.539.8.967.966,1.118.415,1.422.539a3.823,3.823,0,0,1,1.325.773,2.492,2.492,0,0,1,.745,1.836,2.885,2.885,0,0,1-1.118,2.278" transform="translate(-44.056 -62.192)" fill="#161819"/>
  </g>
</svg>
