<svg id="Group_36" data-name="Group 36" xmlns="http://www.w3.org/2000/svg" xmlns:xlink="http://www.w3.org/1999/xlink" width="163.565" height="52.147" viewBox="0 0 163.565 52.147">
  <defs>
    <clipPath id="clip-path">
      <rect id="Rectangle_26" data-name="Rectangle 26" width="163.565" height="52.147" fill="#161819"/>
    </clipPath>
  </defs>
  <g id="Group_35" data-name="Group 35" transform="translate(0 0)" clip-path="url(#clip-path)">
    <path id="Path_63" data-name="Path 63" d="M106.615,56.6a.246.246,0,0,1,.246-.246h2.9a2.351,2.351,0,0,1,1.345,4.452,2.342,2.342,0,0,1,1.618,2.109,2.587,2.587,0,0,1-2.821,2.5h-3.041a.246.246,0,0,1-.246-.246Zm3.274,7.621a1.379,1.379,0,0,0,1.4-1.41,1.486,1.486,0,0,0-1.592-1.358h-1.773v2.769Zm-.207-3.933a1.3,1.3,0,0,0,1.333-1.384,1.25,1.25,0,0,0-1.333-1.333h-1.747V60.29Z" transform="translate(-25.342 -13.396)" fill="#161819"/>
    <path id="Path_64" data-name="Path 64" d="M118.19,56.6a.246.246,0,0,1,.246-.246h3.52a2.792,2.792,0,0,1,2.821,2.769,2.872,2.872,0,0,1-1.915,2.627l1.773,3.286a.245.245,0,0,1-.22.376H123.4a.239.239,0,0,1-.207-.117l-1.721-3.429h-1.954v3.3a.255.255,0,0,1-.246.246h-.841a.246.246,0,0,1-.246-.246Zm3.662,4.154a1.608,1.608,0,0,0,1.579-1.6,1.586,1.586,0,0,0-1.579-1.54h-2.3v3.144Z" transform="translate(-28.094 -13.396)" fill="#161819"/>
    <path id="Path_65" data-name="Path 65" d="M130.5,56.6a.246.246,0,0,1,.245-.246h5.176a.246.246,0,0,1,.246.246v.725a.246.246,0,0,1-.246.245h-4.089v2.64h3.455a.254.254,0,0,1,.245.245v.725a.246.246,0,0,1-.245.245h-3.455v2.782h4.089a.246.246,0,0,1,.246.245v.712a.245.245,0,0,1-.246.245h-5.176a.245.245,0,0,1-.245-.245Z" transform="translate(-31.019 -13.396)" fill="#161819"/>
    <path id="Path_66" data-name="Path 66" d="M140.42,56.627a.226.226,0,0,1,.233-.311h.867a.265.265,0,0,1,.232.181l1.566,5.94h.052l2.109-6.108a.233.233,0,0,1,.22-.142h.233a.233.233,0,0,1,.22.142l2.134,6.108h.052l1.54-5.94a.266.266,0,0,1,.233-.181h.867a.226.226,0,0,1,.233.311l-2.445,8.7a.251.251,0,0,1-.233.181h-.207a.247.247,0,0,1-.22-.143l-2.278-6.432h-.065l-2.238,6.432a.248.248,0,0,1-.22.143H143.1a.25.25,0,0,1-.233-.181Z" transform="translate(-33.375 -13.356)" fill="#161819"/>
    <rect id="Rectangle_25" data-name="Rectangle 25" width="1.346" height="9.058" rx="0.323" transform="translate(120.255 42.96)" fill="#161819"/>
    <path id="Path_67" data-name="Path 67" d="M163.829,56.419a.244.244,0,0,1,.246-.232h.323l5.616,6.5h.013V56.562a.246.246,0,0,1,.245-.246h.829a.254.254,0,0,1,.245.246v8.709a.242.242,0,0,1-.245.232h-.337l-5.615-6.677h-.013v6.3a.245.245,0,0,1-.246.245h-.815a.254.254,0,0,1-.246-.245Z" transform="translate(-38.942 -13.356)" fill="#161819"/>
    <path id="Path_68" data-name="Path 68" d="M181.793,56.187a4.705,4.705,0,0,1,3.145,1.2.251.251,0,0,1,.013.362c-.194.207-.388.4-.582.608-.1.116-.207.1-.336-.014a3.452,3.452,0,0,0-2.2-.88,3.36,3.36,0,0,0,0,6.716,4.554,4.554,0,0,0,1.941-.44V62.295H182.5a.235.235,0,0,1-.245-.233v-.75a.238.238,0,0,1,.245-.246h2.355a.243.243,0,0,1,.233.246c0,1.035.013,2.1.013,3.132a.322.322,0,0,1-.1.207,6.466,6.466,0,0,1-3.209.855,4.658,4.658,0,1,1,0-9.317" transform="translate(-42.105 -13.356)" fill="#161819"/>
    <path id="Path_69" data-name="Path 69" d="M198.7,56.187a4.491,4.491,0,0,1,3.132,1.2.241.241,0,0,1,.013.362l-.569.582c-.091.116-.207.116-.323,0a3.509,3.509,0,0,0-2.239-.868,3.36,3.36,0,0,0,.013,6.716,3.467,3.467,0,0,0,2.226-.854.236.236,0,0,1,.31-.013l.6.582a.247.247,0,0,1-.013.349A4.445,4.445,0,0,1,198.7,65.5a4.658,4.658,0,1,1,0-9.317" transform="translate(-46.121 -13.356)" fill="#161819"/>
    <path id="Path_70" data-name="Path 70" d="M209.8,56.059A2.936,2.936,0,0,0,206.876,59a2.928,2.928,0,0,0,5.857,0,2.939,2.939,0,0,0-2.933-2.94M211.759,59a1.955,1.955,0,0,1-3.91,0,1.985,1.985,0,0,1,1.951-1.967A1.965,1.965,0,0,1,211.759,59" transform="translate(-49.174 -13.326)" fill="#161819"/>
    <path id="Path_71" data-name="Path 71" d="M210.462,65.538a.79.79,0,0,1,.8.8.787.787,0,0,1-.236.565.807.807,0,0,1-.568.228.8.8,0,0,1-.8-.793.807.807,0,0,1,.232-.566.785.785,0,0,1,.563-.238" transform="translate(-49.838 -15.579)" fill="#161819"/>
    <path id="Path_72" data-name="Path 72" d="M17.306,13.263a3.793,3.793,0,0,1,3.1,3.589V29.465a2.609,2.609,0,0,1-3.1,2.615l-.2-.036q1.693,4.668,3.388,9.269-3.469-.48-6.939-1.238-1.714-4.745-3.428-9.563-1.51-.4-3.02-.856,0,4.368,0,8.735Q3.551,37.313,0,35.883V8.331a85.038,85.038,0,0,0,17.306,4.932M13.347,18.8a.584.584,0,0,0-.367-.491q-2.939-.668-5.877-1.556,0,3.673,0,7.347Q10.041,25,12.98,25.66a.327.327,0,0,0,.367-.284V18.8" transform="translate(0 -1.981)" fill="#161819"/>
    <path id="Path_73" data-name="Path 73" d="M36.359,16.315a122.569,122.569,0,0,0,18-.28v5.918c-3.646.306-7.293.483-10.939.49V27.26c3.156-.005,6.313-.139,9.469-.374v5.877c-3.157.236-6.313.368-9.469.374v4.979c3.646-.007,7.293-.183,10.939-.49v5.96a122.674,122.674,0,0,1-18,.28V16.315" transform="translate(-8.643 -3.812)" fill="#161819"/>
    <path id="Path_74" data-name="Path 74" d="M88.5,10.647q-4.1,14.576-8.2,29.081-3.429.6-6.858,1.124-4-13.175-8-26.5,3.8-.417,7.593-.988,1.918,8.471,3.837,16.91,2.306-9.134,4.613-18.3,3.509-.63,7.02-1.32" transform="translate(-15.554 -2.531)" fill="#161819"/>
    <path id="Path_75" data-name="Path 75" d="M102.438,8.2c6-1.205,12-2.447,18-3.549v5.918c-3.646.669-7.293,1.39-10.939,2.124v4.816c3.157-.634,6.313-1.26,9.469-1.851v5.877c-3.157.591-6.313,1.217-9.469,1.852V28.37c3.646-.733,7.293-1.454,10.939-2.124v5.96c-6,1.1-12,2.343-18,3.549Z" transform="translate(-24.349 -1.107)" fill="#161819"/>
    <path id="Path_76" data-name="Path 76" d="M152.356.385a2.887,2.887,0,0,1,3.1,2.926V15.924a3.4,3.4,0,0,1-3.1,3.279l-.2.014q1.695,4.25,3.388,8.541-3.47.156-6.939.483-1.715-4.208-3.429-8.381-1.511.172-3.02.368,0,4.367,0,8.734-3.552.461-7.1,1.04V2.449c5.769-.932,11.538-1.672,17.307-2.064M148.4,7.034a.387.387,0,0,0-.367-.374q-2.939.284-5.877.668,0,3.674,0,7.347,2.939-.381,5.877-.668a.491.491,0,0,0,.367-.4V7.034" transform="translate(-32.101 -0.09)" fill="#161819"/>
    <path id="Path_77" data-name="Path 77" d="M178.47,27.886q-3.531-.288-7.062-.334V0q3.531.051,7.062.334Z" transform="translate(-40.744 0)" fill="#161819"/>
    <path id="Path_78" data-name="Path 78" d="M190.954,1.7a85.124,85.124,0,0,1,18,5.051v5.918A84.316,84.316,0,0,0,198.015,9.1v4.817a84.116,84.116,0,0,1,9.469,3V22.79a84.117,84.117,0,0,0-9.469-3v4.98a84.084,84.084,0,0,1,10.939,3.574v5.96a85.124,85.124,0,0,0-18-5.051V1.7" transform="translate(-45.39 -0.406)" fill="#161819"/>
  </g>
</svg>
