<svg xmlns="http://www.w3.org/2000/svg" xmlns:xlink="http://www.w3.org/1999/xlink" width="145.695" height="57.325" viewBox="0 0 145.695 57.325">
  <defs>
    <clipPath id="clip-path">
      <rect id="Rectangle_28" data-name="Rectangle 28" width="145.695" height="57.325" fill="#161819"/>
    </clipPath>
  </defs>
  <g id="Group_42" data-name="Group 42" transform="translate(0)">
    <g id="Group_41" data-name="Group 41" transform="translate(0 0)" clip-path="url(#clip-path)">
      <path id="Path_93" data-name="Path 93" d="M45.046,11.733A2.037,2.037,0,0,1,46.064,13.5V26.883L43.5,25.41a3.017,3.017,0,0,1-1.512-2.616V15.627a1.652,1.652,0,0,0-.827-1.431L25.444,5.118a4.822,4.822,0,0,0-4.824,0L4.9,14.2a1.651,1.651,0,0,0-.826,1.431v5.909L31.759,37.582l-2.082,1.2a3.985,3.985,0,0,1-3.983,0L1.018,24.475A2.037,2.037,0,0,1,0,22.711V13.5a2.034,2.034,0,0,1,1.018-1.763L19.761.879a6.528,6.528,0,0,1,6.541,0ZM19.761,56.446a6.525,6.525,0,0,0,6.541,0L45.046,45.592a2.036,2.036,0,0,0,1.018-1.763V34.613a2.038,2.038,0,0,0-1.018-1.763L20.369,18.539a3.985,3.985,0,0,0-3.983,0l-2.082,1.2L41.993,35.789V41.7a1.652,1.652,0,0,1-.827,1.431L25.444,52.208a4.825,4.825,0,0,1-4.824,0L4.9,43.129A1.651,1.651,0,0,1,4.071,41.7V34.531a3.02,3.02,0,0,0-1.513-2.616L0,30.442V43.828a2.036,2.036,0,0,0,1.019,1.764Z" transform="translate(0 0)" fill="#161819"/>
      <path id="Path_94" data-name="Path 94" d="M89.822,48.082l.016-.018a3.556,3.556,0,0,1,4.378-.822,8.163,8.163,0,0,0,3.848.925c2.123,0,3.464-.978,3.464-2.458v-.056c0-1.4-.783-2.151-4.415-2.989-4.163-1.006-6.509-2.235-6.509-5.839v-.056c0-3.352,2.794-5.671,6.677-5.671a10.839,10.839,0,0,1,7.1,2.459,3.518,3.518,0,0,1-4.234,1.2,7.5,7.5,0,0,0-2.919-.616c-2.011,0-3.185,1.034-3.185,2.319v.056c0,1.509.894,2.179,4.638,3.073,4.134,1.006,6.286,2.487,6.286,5.727v.056c0,3.66-2.878,5.839-6.984,5.839a12.046,12.046,0,0,1-8.158-3.129" transform="translate(-34.863 -12.069)" fill="#161819"/>
      <path id="Path_95" data-name="Path 95" d="M129.717,42.812V31.553a3.436,3.436,0,0,1,3.436,3.436v7.683c0,3.631,1.872,5.588,4.946,5.588,3.045,0,4.917-1.844,4.917-5.448V31.553h3.436V42.644c0,5.838-3.3,8.772-8.409,8.772-5.085,0-8.326-2.934-8.326-8.6" transform="translate(-50.347 -12.247)" fill="#161819"/>
      <path id="Path_96" data-name="Path 96" d="M171.915,48.567,183.454,34.6h-8.13a3.045,3.045,0,0,1-3.045-3.045h15.645v2.542l-11.539,13.97h8.493a3.045,3.045,0,0,1,3.045,3.045H171.915Z" transform="translate(-66.726 -12.247)" fill="#161819"/>
      <path id="Path_97" data-name="Path 97" d="M214.834,43.4l-7.766-11.846h4.051l5.476,8.66,5.532-8.66h3.939L218.3,43.314v4.331a3.464,3.464,0,0,1-3.464,3.464Z" transform="translate(-80.37 -12.247)" fill="#161819"/>
    </g>
  </g>
</svg>
