<svg xmlns="http://www.w3.org/2000/svg" xmlns:xlink="http://www.w3.org/1999/xlink" width="163.565" height="54.772" viewBox="0 0 163.565 54.772">
  <defs>
    <clipPath id="clip-path">
      <rect id="Rectangle_21" data-name="Rectangle 21" width="163.565" height="54.772" fill="#161819"/>
    </clipPath>
  </defs>
  <g id="Group_31" data-name="Group 31" transform="translate(0)">
    <g id="Group_30" data-name="Group 30" transform="translate(0 0)" clip-path="url(#clip-path)">
      <path id="Path_55" data-name="Path 55" d="M81.573,0C28.263,0,0,37.824,0,37.824l11.588,7.828A56.818,56.818,0,0,1,16.2,37.125a13.055,13.055,0,0,0,.186,2.139c2.046,15.888,17.486,15.507,17.486,15.507H129.6s15.645.43,17.691-15.454a11.867,11.867,0,0,0,.171-2.067,56.769,56.769,0,0,1,4.533,8.3L163.565,37.8S134.879,0,81.573,0m63.345,39.08A15.185,15.185,0,0,1,129.4,51.232H33.829C20.392,51.232,18.5,38.969,18.5,38.969c-.516-3.256.115-5.488,1.121-7.025C29.291,19.2,48.436,2.106,81.53,2.106c33.379,0,52.681,17.349,62.352,30.085,1.115,1.42,1.535,3.736,1.036,6.889" transform="translate(0 0)" fill="#161819"/>
      <path id="Path_56" data-name="Path 56" d="M66.074,34.28l1.6-3.418H47.227l-1.6,3.418h7.921l-8.2,16.673H50.64l8.2-16.673Z" transform="translate(-12.416 -8.45)" fill="#161819"/>
      <path id="Path_57" data-name="Path 57" d="M149.807,47.913s-1.031.481-1.475.016-.049-1.309-.049-1.309l4.322-9.085H148.2l-.672,1.212c-2.571-2.259-7.413-1.094-10.408,2.039a9.752,9.752,0,0,0-2.842,5.812,12.918,12.918,0,0,1-2.367,1.233s-1.033.483-1.479.016-.042-1.314-.042-1.314l7.666-15.779h-4.4l-4.032,7.914c-2.57-2.259-7.408-1.093-10.408,2.037a12.185,12.185,0,0,0-1.54,2.006l0-.016c-.03.06-.06.115-.088.169-.093.167-.186.32-.269.483-2.394,4.147-5.369,4.835-5.369,4.835-6.293,1.881-7.013-1.2-7.013-1.2,7.05-2.608,9.7-5.694,9.451-8.056s-3.481-2.485-3.481-2.485c-5.327-.32-9.942,3.412-11.058,7.055a6.8,6.8,0,0,0-.237,3.293,11.772,11.772,0,0,1-3.363,1.317c-1.773.563-1.992-.28-2.2-.794s-1.014-5.06-1.014-5.06l7.477-4.9H95.939l-5.622,3.486c-1.264.525-.776-.806-.776-.806l4.594-9.291H89.725L82.279,45.83a31.08,31.08,0,0,1-3.82,2s-1.031.483-1.476.016-.05-1.314-.05-1.314l4.322-9.08h-4.4l-.675,1.214c-2.571-2.259-7.41-1.093-10.406,2.037s-3.767,7.271-1.715,9.233c1.64,1.572,4.594,1.277,7.242-.505,0,0,.669-.577,1.035.1.374.7,1.888,2.282,5.384.9a24.506,24.506,0,0,0,2.99-1.421L79.8,50.862h4.4L86.406,46.4l1.916-1.224s.585-.463.82.527a31.3,31.3,0,0,0,1.323,4.238c.367.489,1.1,1.6,4.2.712a53.8,53.8,0,0,0,5.75-2.025c1.036,1.433,3.026,2.4,6.3,2.4a15.317,15.317,0,0,0,9.679-3.5,3.814,3.814,0,0,0,1.124,2.415c1.635,1.572,4.589,1.277,7.236-.505,0,0,.672-.577,1.036.1.375.7,1.89,2.282,5.389.9a17.707,17.707,0,0,0,3.382-1.709,3.57,3.57,0,0,0,.85,1.3c1.644,1.566,4.6,1.277,7.241-.511,0,0,.669-.578,1.038.1.374.7,1.892,2.285,5.383.9s4.5-2.624,4.5-2.624l-.882-1.561a13.367,13.367,0,0,1-2.879,1.584m-76.438-2.6c-1.529,2.142-3.678,3.224-4.812,2.415s-.83-3.2.69-5.341,3.68-3.223,4.815-2.415.829,3.2-.692,5.341m31.215-1.558a7.9,7.9,0,0,1,4.194-4.654s.913-.309,1.405.091c0,0,.683.664-.135,1.881a10.31,10.31,0,0,1-4.391,3.725s-1.723.755-1.073-1.042m22.235,1.558c-1.528,2.142-3.68,3.224-4.819,2.415s-.823-3.2.7-5.341,3.679-3.223,4.814-2.415.824,3.2-.694,5.341m17.895.079c-1.524,2.141-3.674,3.226-4.814,2.417s-.825-3.2.7-5.339,3.674-3.228,4.812-2.417.825,3.2-.7,5.338" transform="translate(-17.224 -8.419)" fill="#161819"/>
    </g>
  </g>
</svg>
