<svg xmlns="http://www.w3.org/2000/svg" xmlns:xlink="http://www.w3.org/1999/xlink" width="109.898" height="86.229" viewBox="0 0 109.898 86.229">
  <defs>
    <clipPath id="clip-path">
      <rect id="Rectangle_18" data-name="Rectangle 18" width="109.898" height="86.229" fill="#161819"/>
    </clipPath>
  </defs>
  <g id="Group_27" data-name="Group 27" transform="translate(0)">
    <g id="Group_26" data-name="Group 26" transform="translate(0)">
      <g id="Group_25" data-name="Group 25">
        <g id="Group_24" data-name="Group 24" clip-path="url(#clip-path)">
          <path id="Path_47" data-name="Path 47" d="M64.1,114.662a4.8,4.8,0,0,0-4.548,2.576l.056-2.176H54.577v19.915h5.036v-7.124a5.2,5.2,0,0,0,4.836,2.4c3.691,0,5.865-2.946,5.865-7.9,0-4.921-2.345-7.7-6.208-7.7m-1.688,11.416c-1.716,0-2.89-1.487-2.89-3.662s1.174-3.692,2.89-3.692c1.918,0,2.832,1.174,2.832,3.664s-.973,3.69-2.832,3.69" transform="translate(-23.203 -48.747)" fill="#161819"/>
          <rect id="Rectangle_13" data-name="Rectangle 13" width="5.036" height="21.633" transform="translate(49.027 59.476)" fill="#161819"/>
          <path id="Path_48" data-name="Path 48" d="M105.106,114.661c-4.749,0-7.926,3.005-7.926,7.984,0,4.891,3.377,7.725,8.013,7.725,3.575,0,6.237-1.431,7.611-4.406l-4.264-1.346c-.688,1.46-1.859,1.805-3.4,1.805a2.98,2.98,0,0,1-3.09-2.748h10.787c.572-6.895-4.034-9.013-7.726-9.013m-3.033,6.123c.374-1.687,1.432-2.2,3.033-2.2,1.775,0,2.69.8,2.92,2.2Z" transform="translate(-41.315 -48.747)" fill="#161819"/>
          <rect id="Rectangle_14" data-name="Rectangle 14" width="5.035" height="4.827" transform="translate(23.779 59.53)" fill="#161819"/>
          <path id="Path_49" data-name="Path 49" d="M27.12,116.971l.056-1.8H22.142v14.794h5.035v-7.64c0-1.917.631-2.775,2.06-2.775a1.97,1.97,0,0,1,1.631.686h.059l.014-.032v-5.271c-.149-.013-.305-.018-.472-.018a3.919,3.919,0,0,0-3.349,2.06" transform="translate(-9.413 -48.853)" fill="#161819"/>
          <rect id="Rectangle_15" data-name="Rectangle 15" width="5.035" height="21.633" transform="translate(74.874 59.476)" fill="#161819"/>
          <rect id="Rectangle_16" data-name="Rectangle 16" width="5.036" height="4.827" transform="translate(82.103 59.53)" fill="#161819"/>
          <rect id="Rectangle_17" data-name="Rectangle 17" width="5.036" height="14.793" transform="translate(82.103 66.315)" fill="#161819"/>
          <rect id="Rectangle_19" data-name="Rectangle 19" width="5.036" height="14.793" transform="translate(23.786 66.315)" fill="#161819"/>
          <path id="Path_50" data-name="Path 50" d="M7.438,103.556,2.4,106.464v3.874H0v3.985H2.4v5.161h0v1.846h0a4.67,4.67,0,0,0,.913,3.182c.658.773,1.832,1.029,3.405,1.029a9.446,9.446,0,0,0,3.291-.572v-4.234H9.956a2.808,2.808,0,0,1-1.4.316c-.877,0-1.111-.451-1.115-1.238v-5.49h3.031v-3.985H7.438Z" transform="translate(0 -44.026)" fill="#161819"/>
          <path id="Path_51" data-name="Path 51" d="M175.456,113.924v-3.985h-3.031v-7.007l-5.036,2.908v4.1h-4.814v-2.114c0-.831.544-1.2,1.4-1.2a2.758,2.758,0,0,1,1.8.6h.057l.543-3.891a9.04,9.04,0,0,0-3.891-.715c-3.062,0-4.95,1.345-4.95,4.578v2.744H154.2v3.985h3.335v10.811h5.035V113.924h4.814v7.007h0a4.669,4.669,0,0,0,.913,3.181c.658.773,1.832,1.029,3.405,1.029a9.429,9.429,0,0,0,3.291-.572v-4.234h-.057a2.8,2.8,0,0,1-1.4.317c-.877,0-1.111-.451-1.115-1.238v-5.489Z" transform="translate(-65.558 -43.627)" fill="#161819"/>
          <path id="Path_52" data-name="Path 52" d="M103.3,38.013,83.7,4.066a8.132,8.132,0,0,0-14.085,0L50.02,38.013a8.15,8.15,0,0,0,7.043,12.216H71V48.637h0V44.474h0V42.9h0V37.257H65.645L76.661,18.176,87.678,37.028H82.343V42.9h0v1.574h0v4.163h0v1.591l1.576,0v-.02H96.261a8.132,8.132,0,0,0,7.043-12.2M83.917,38.6h6.5l-1.384-2.368L78.02,17.382l-1.367-2.339L75.3,17.389,64.282,36.47l-1.363,2.36h6.5V42.9h-12.6a.608.608,0,0,1-.527-.912L76.134,7.615a.608.608,0,0,1,1.053,0L97.033,41.988a.608.608,0,0,1-.527.912H83.917Zm18.024,6.756a6.492,6.492,0,0,1-5.68,3.279H83.917V44.474H96.506A2.182,2.182,0,0,0,98.4,41.2L78.551,6.828a2.181,2.181,0,0,0-3.779,0L54.927,41.2a2.182,2.182,0,0,0,1.889,3.273h12.6v4.18H57.062a6.576,6.576,0,0,1-5.68-9.855l19.6-33.947a6.558,6.558,0,0,1,11.359,0L101.94,38.8a6.493,6.493,0,0,1,0,6.559" transform="translate(-20.797)" fill="#161819"/>
        </g>
      </g>
    </g>
  </g>
</svg>
